<svg xmlns="http://www.w3.org/2000/svg" xmlns:xlink="http://www.w3.org/1999/xlink" width="192" height="14" viewBox="0 0 192 14">
  <defs>
    <path id="navigation-bar-copy-a" d="M6.3463354,12.4955031 C3.15826087,12.4955031 0.229763975,10.316323 0.229763975,6.44650932 C0.229763975,2.52780124 3.19045963,0.251229814 6.36263354,0.251229814 C8.20710559,0.251229814 9.48551553,0.853068323 10.699528,1.73118012 L10.4244472,2.15373913 C9.25893168,1.3082236 8.06161491,0.739378882 6.36263354,0.723080745 C3.54703106,0.723080745 0.77952795,2.78817391 0.77952795,6.43021118 C0.77952795,10.0559503 3.5303354,12.0236522 6.36263354,12.0236522 C8.02901863,12.0236522 9.22673292,11.4548075 10.3922484,10.6581863 L10.6347329,11.0481491 C9.43741615,11.8936646 8.19120497,12.4955031 6.3463354,12.4955031 L6.3463354,12.4955031 Z"/>
    <polygon id="navigation-bar-copy-c" points=".028 11.968 .028 .049 .562 .049 .562 11.496 6.485 11.496 6.485 11.968"/>
    <path id="navigation-bar-copy-e" d="M5.86176398,0.771975155 C2.8032795,0.771975155 0.586335404,3.22742857 0.586335404,6.41391304 C0.586335404,9.60119255 2.8032795,12.0236522 5.86176398,12.0236522 C8.92024845,12.0236522 11.1375901,9.60119255 11.1375901,6.41391304 C11.1375901,3.22742857 8.92024845,0.771975155 5.86176398,0.771975155 L5.86176398,0.771975155 Z M5.86176398,12.4955031 C2.54489441,12.4955031 0.0365714286,9.89336646 0.0365714286,6.41391304 C0.0365714286,2.93445963 2.54489441,0.300521739 5.86176398,0.300521739 C9.17903106,0.300521739 11.687354,2.93445963 11.687354,6.41391304 C11.687354,9.89336646 9.17903106,12.4955031 5.86176398,12.4955031 L5.86176398,12.4955031 Z"/>
    <path id="navigation-bar-copy-g" d="M4.60640994,12.0979876 C1.80750311,12.0979876 0.237714286,10.5039503 0.237714286,7.61003727 L0.237714286,0.0488944099 L0.771975155,0.0488944099 L0.771975155,7.65893168 C0.771975155,10.162882 2.2117764,11.610236 4.60640994,11.610236 C7.00183851,11.610236 8.47463354,10.1139876 8.47463354,7.65893168 L8.47463354,0.0488944099 L9.00849689,0.0488944099 L9.00849689,7.61003727 C9.00849689,10.4391553 7.30911801,12.0979876 4.60640994,12.0979876 L4.60640994,12.0979876 Z"/>
    <path id="navigation-bar-copy-i" d="M2.66891925,0.787875776 C1.85997516,0.787875776 1.09913043,0.853068323 0.597465839,0.91826087 L0.597465839,11.8936646 C1.09913043,11.9584596 1.85997516,12.0236522 2.66891925,12.0236522 C6.71443478,12.0236522 8.91547826,9.51970186 8.91547826,6.29982609 C8.91547826,3.38961491 6.69853416,0.787875776 2.66891925,0.787875776 L2.66891925,0.787875776 Z M2.74961491,12.4955031 C1.69818634,12.4955031 0.614161491,12.3977143 0.0636024845,12.3166211 L0.0636024845,0.495304348 C0.614161491,0.41421118 1.69818634,0.316819876 2.74961491,0.316819876 C7.11910559,0.316819876 9.46524224,3.25962733 9.46524224,6.29982609 C9.46524224,9.66598758 7.11910559,12.4955031 2.74961491,12.4955031 L2.74961491,12.4955031 Z"/>
  </defs>
  <g fill="none" fill-rule="evenodd" transform="translate(.118)">
    <polygon fill="#0F1417" points=".31 1.206 2.333 1.206 2.333 13.124 .31 13.124"/>
    <polyline fill="#0F1417" points="16.492 13.124 16.33 5.986 12.592 11.677 12.349 11.677 8.578 5.97 8.449 13.124 6.459 13.124 6.96 1.06 7.268 1.027 12.527 8.929 17.657 1.027 17.981 1.06 18.482 13.124 16.492 13.124"/>
    <path fill="#0F1417" d="M26.765913 4.79960248L25.0828323 8.78350311 28.4485963 8.78350311 26.765913 4.79960248 26.765913 4.79960248zM30.2608696 13.1243727L29.1124472 10.3930435 24.4189814 10.3930435 23.2701615 13.1243727 21.1828075 13.1243727 26.6522236 1.04308075 26.9436025 1.04308075 32.397118 13.1243727 30.2608696 13.1243727 30.2608696 13.1243727zM45.568 6.81540373L45.568 12.018882C44.3062857 12.8480994 42.930087 13.3195528 41.1500124 13.3195528 37.7683478 13.3195528 34.8557516 10.8481988 34.8557516 7.17356522 34.8557516 3.4663354 37.8168447 1.01048447 41.1500124 1.01048447 42.8978882 1.01048447 44.1444969 1.49863354 45.3577143 2.24636025L44.4350807 3.87219876C43.480646 3.25485714 42.3481242 2.88079503 41.2478012 2.88079503 38.5450932 2.88079503 37.0238012 4.79960248 37.0238012 7.17356522 37.0238012 9.70971429 38.8849689 11.5148323 41.2311056 11.5148323 42.2507329 11.5148323 42.930087 11.3359503 43.6261366 10.9455901L43.6261366 8.6042236 40.8590311 8.6042236 40.8590311 6.81540373 45.568 6.81540373"/>
    <polygon fill="#0F1417" points="49.499 1.206 51.522 1.206 51.522 13.124 49.499 13.124"/>
    <polyline fill="#0F1417" points="65.26 13.352 57.832 5.482 57.832 13.124 55.81 13.124 55.81 1.043 56.133 .978 63.464 8.734 63.464 1.206 65.486 1.206 65.486 13.303 65.26 13.352"/>
    <path fill="#0F1417" d="M73.9319255 4.79960248L72.2484472 8.78350311 75.6150062 8.78350311 73.9319255 4.79960248 73.9319255 4.79960248zM77.426882 13.1243727L76.2780621 10.3930435 71.5853913 10.3930435 70.4365714 13.1243727 68.3488199 13.1243727 73.8186335 1.04308075 74.1096149 1.04308075 79.5631304 13.1243727 77.426882 13.1243727 77.426882 13.1243727zM85.8243975 2.94598758C85.3390311 2.94598758 84.8699627 2.9618882 84.4652919 3.04337888L84.4652919 7.10837267C84.8373665 7.15686957 85.2416398 7.17356522 85.6304099 7.17356522 87.3937888 7.17356522 88.2842236 6.34395031 88.2842236 4.97808696 88.2842236 3.77480745 87.3778882 2.94598758 85.8243975 2.94598758L85.8243975 2.94598758zM88.8669814 13.1243727L86.2775652 8.83160248C86.0672795 8.84829814 85.8728944 8.84829814 85.6463106 8.84829814 85.2579379 8.84829814 84.8532671 8.83160248 84.4652919 8.81530435L84.4652919 13.1243727 82.4423354 13.1243727 82.4423354 1.31935404C83.3808696 1.2056646 84.3682981 1.12457143 85.5656149 1.12457143 88.9313789 1.12457143 90.420472 2.76670807 90.420472 4.88069565 90.420472 6.42544099 89.5785342 7.67721739 88.1061366 8.32795031L91.213118 13.1243727 88.8669814 13.1243727 88.8669814 13.1243727z"/>
    <polyline fill="#0F1417" points="99.432 8.116 99.432 13.124 97.41 13.124 97.41 8.1 93.235 1.206 95.549 1.206 98.462 6.246 101.342 1.206 103.608 1.206 99.432 8.116"/>
    <g transform="translate(106.534 .398)">
      <mask id="navigation-bar-copy-b" fill="#fff">
        <use xlink:href="#navigation-bar-copy-a"/>
      </mask>
      <polygon fill="#0E1317" points=".23 .251 10.7 .251 10.7 12.496 .23 12.496" mask="url(#navigation-bar-copy-b)"/>
    </g>
    <path fill="#0E1317" d="M112.880497,13.0917764 C109.742112,13.0917764 106.565168,10.9455901 106.565168,6.84402484 C106.565168,2.64626087 109.750062,0.449987578 112.896795,0.449987578 C114.973019,0.449987578 116.313043,1.21719255 117.350161,1.96770186 L117.503205,2.0786087 L117.011081,2.83508075 L116.841739,2.71224845 C115.497342,1.73674534 114.354087,1.33326708 112.894807,1.31935404 C109.399453,1.31935404 107.512447,4.15761491 107.512447,6.82772671 C107.512447,10.3695901 110.221118,12.2228075 112.896795,12.2228075 C114.62877,12.2228075 115.803031,11.5828075 116.813913,10.891528 L116.98564,10.7742609 L117.43682,11.4997267 L117.283776,11.6078509 C116.192199,12.3786335 114.903453,13.0917764 112.880497,13.0917764"/>
    <g transform="translate(120.845 .795)">
      <mask id="navigation-bar-copy-d" fill="#fff">
        <use xlink:href="#navigation-bar-copy-c"/>
      </mask>
      <polygon fill="#0E1317" points=".028 .049 6.485 .049 6.485 11.968 .028 11.968" mask="url(#navigation-bar-copy-d)"/>
    </g>
    <polyline fill="#0E1317" points="127.528 12.961 120.674 12.961 120.674 .646 121.606 .646 121.606 12.092 127.528 12.092 127.528 12.961"/>
    <g transform="translate(129.59 .398)">
      <mask id="navigation-bar-copy-f" fill="#fff">
        <use xlink:href="#navigation-bar-copy-e"/>
      </mask>
      <polygon fill="#0E1317" points=".037 .301 11.687 .301 11.687 12.496 .037 12.496" mask="url(#navigation-bar-copy-f)"/>
    </g>
    <path fill="#0E1317" d="M135.451826,13.0917764 C132.017292,13.0917764 129.427876,10.3918509 129.427876,6.81142857 C129.427876,3.21311801 132.017292,0.499279503 135.451826,0.499279503 C138.88636,0.499279503 141.476174,3.21311801 141.476174,6.81142857 C141.476174,10.3918509 138.88636,13.0917764 135.451826,13.0917764 L135.451826,13.0917764 Z M135.451826,1.36824845 C132.557913,1.36824845 130.375553,3.70842236 130.375553,6.81142857 C130.375553,9.89654658 132.557913,12.2228075 135.451826,12.2228075 C138.346137,12.2228075 140.528894,9.89654658 140.528894,6.81142857 C140.528894,3.70842236 138.346137,1.36824845 135.451826,1.36824845 L135.451826,1.36824845 Z"/>
    <g transform="translate(144.696 .795)">
      <mask id="navigation-bar-copy-h" fill="#fff">
        <use xlink:href="#navigation-bar-copy-g"/>
      </mask>
      <polygon fill="#0E1317" points=".238 .049 9.008 .049 9.008 12.098 .238 12.098" mask="url(#navigation-bar-copy-h)"/>
    </g>
    <path fill="#0E1317" d="M149.302062,13.0917764 C146.399404,13.0917764 144.734609,11.3836522 144.734609,8.40506832 L144.734609,0.645565217 L145.665988,0.645565217 L145.665988,8.45396273 C145.665988,10.8386584 146.991304,12.2065093 149.302062,12.2065093 C151.599702,12.2065093 152.97113,10.803677 152.97113,8.45396273 L152.97113,0.645565217 L153.902907,0.645565217 L153.902907,8.40506832 C153.902907,11.2961988 152.140323,13.0917764 149.302062,13.0917764"/>
    <g transform="translate(157.814 .398)">
      <mask id="navigation-bar-copy-j" fill="#fff">
        <use xlink:href="#navigation-bar-copy-i"/>
      </mask>
      <polygon fill="#0E1317" points=".064 .317 9.465 .317 9.465 12.496 .064 12.496" mask="url(#navigation-bar-copy-j)"/>
    </g>
    <path fill="#0E1317" d="M160.56328,13.0917764 C159.542062,13.0917764 158.440149,12.9979627 157.848248,12.9105093 L157.678509,12.8858634 L157.678509,0.721490683 L157.848248,0.696447205 C158.437764,0.608993789 159.53928,0.515180124 160.56328,0.515180124 C165.102907,0.515180124 167.478062,3.62534161 167.478062,6.69773913 C167.478062,9.88024845 165.339826,13.0917764 160.56328,13.0917764 L160.56328,13.0917764 Z M158.609888,12.1150807 C158.985938,12.1584099 159.680398,12.2228075 160.482584,12.2228075 C164.156422,12.2228075 166.530385,10.0539627 166.530385,6.69773913 C166.530385,4.13853416 164.637814,1.38414907 160.482584,1.38414907 C159.674832,1.38414907 158.983553,1.44854658 158.609888,1.49147826 L158.609888,12.1150807 L158.609888,12.1150807 Z"/>
    <path fill="#057AFF" d="M175.836621,11.0143602 L184.904348,11.0143602 C187.594733,11.0143602 189.783453,9.03632298 189.783453,6.60551553 L189.783453,6.49818634 C189.783453,4.06698137 187.594733,2.08934161 184.904348,2.08934161 L180.715727,2.08934161 C178.025739,2.08934161 175.836621,4.06698137 175.836621,6.49818634 L175.836621,11.0143602 L175.836621,11.0143602 Z M191.705441,6.10504348 C191.494758,2.87363975 188.642981,0.30489441 185.167901,0.30489441 L180.452174,0.30489441 C176.840348,0.30489441 173.901913,3.0795528 173.901913,6.48944099 L173.901913,12.7984099 L185.167901,12.7984099 C188.642981,12.7984099 191.494758,10.2300621 191.705441,6.99826087 L191.705441,6.10504348 L191.705441,6.10504348 Z"/>
  </g>
</svg>
